<mxfile host="65bd71144e">
    <diagram name="Page-1" id="74e2e168-ea6b-b213-b513-2b3c1d86103e">
        <mxGraphModel dx="823" dy="847" grid="1" gridSize="10" guides="1" tooltips="1" connect="1" arrows="1" fold="1" page="1" pageScale="1" pageWidth="1100" pageHeight="850" background="none" math="0" shadow="0">
            <root>
                <mxCell id="0"/>
                <mxCell id="1" parent="0"/>
                <mxCell id="W0mSgelWktw8DuVjzA9t-32" value="" style="edgeStyle=orthogonalEdgeStyle;rounded=0;orthogonalLoop=1;jettySize=auto;html=1;startArrow=none;startFill=0;endArrow=none;endFill=0;" parent="1" source="W0mSgelWktw8DuVjzA9t-1" target="W0mSgelWktw8DuVjzA9t-2" edge="1">
                    <mxGeometry relative="1" as="geometry"/>
                </mxCell>
                <mxCell id="W0mSgelWktw8DuVjzA9t-1" value="Person" style="rounded=0;whiteSpace=wrap;html=1;" parent="1" vertex="1">
                    <mxGeometry x="195" y="420" width="120" height="60" as="geometry"/>
                </mxCell>
                <mxCell id="W0mSgelWktw8DuVjzA9t-2" value="meets" style="rhombus;whiteSpace=wrap;html=1;" parent="1" vertex="1">
                    <mxGeometry x="160" y="270" width="120" height="80" as="geometry"/>
                </mxCell>
                <mxCell id="W0mSgelWktw8DuVjzA9t-5" style="edgeStyle=orthogonalEdgeStyle;rounded=0;orthogonalLoop=1;jettySize=auto;html=1;exitX=0.5;exitY=1;exitDx=0;exitDy=0;" parent="1" source="W0mSgelWktw8DuVjzA9t-2" target="W0mSgelWktw8DuVjzA9t-2" edge="1">
                    <mxGeometry relative="1" as="geometry"/>
                </mxCell>
                <mxCell id="W0mSgelWktw8DuVjzA9t-9" value="" style="edgeStyle=orthogonalEdgeStyle;rounded=0;orthogonalLoop=1;jettySize=auto;html=1;entryX=0.5;entryY=0;entryDx=0;entryDy=0;endArrow=none;endFill=0;startArrow=none;startFill=0;" parent="1" source="W0mSgelWktw8DuVjzA9t-8" target="W0mSgelWktw8DuVjzA9t-2" edge="1">
                    <mxGeometry relative="1" as="geometry">
                        <Array as="points">
                            <mxPoint x="220" y="250"/>
                        </Array>
                    </mxGeometry>
                </mxCell>
                <mxCell id="W0mSgelWktw8DuVjzA9t-8" value="meeting&lt;br&gt;date" style="ellipse;whiteSpace=wrap;html=1;" parent="1" vertex="1">
                    <mxGeometry x="120" y="180" width="90" height="60" as="geometry"/>
                </mxCell>
                <mxCell id="W0mSgelWktw8DuVjzA9t-11" value="" style="edgeStyle=orthogonalEdgeStyle;rounded=0;orthogonalLoop=1;jettySize=auto;html=1;startArrow=none;startFill=0;endArrow=none;endFill=0;" parent="1" source="W0mSgelWktw8DuVjzA9t-10" target="W0mSgelWktw8DuVjzA9t-2" edge="1">
                    <mxGeometry relative="1" as="geometry">
                        <Array as="points">
                            <mxPoint x="290" y="310"/>
                            <mxPoint x="290" y="310"/>
                        </Array>
                    </mxGeometry>
                </mxCell>
                <mxCell id="3" value="" style="edgeStyle=orthogonalEdgeStyle;rounded=0;orthogonalLoop=1;jettySize=auto;html=1;" edge="1" parent="1" source="W0mSgelWktw8DuVjzA9t-10" target="2">
                    <mxGeometry relative="1" as="geometry"/>
                </mxCell>
                <mxCell id="6" style="edgeStyle=orthogonalEdgeStyle;rounded=0;orthogonalLoop=1;jettySize=auto;html=1;exitX=0.5;exitY=0;exitDx=0;exitDy=0;entryX=0.5;entryY=1;entryDx=0;entryDy=0;" edge="1" parent="1" source="W0mSgelWktw8DuVjzA9t-10" target="5">
                    <mxGeometry relative="1" as="geometry"/>
                </mxCell>
                <mxCell id="W0mSgelWktw8DuVjzA9t-10" value="Place" style="rounded=0;whiteSpace=wrap;html=1;" parent="1" vertex="1">
                    <mxGeometry x="310" y="190" width="120" height="60" as="geometry"/>
                </mxCell>
                <mxCell id="W0mSgelWktw8DuVjzA9t-12" value="&lt;b&gt;&lt;u&gt;ID&lt;/u&gt;&lt;/b&gt;" style="ellipse;whiteSpace=wrap;html=1;" parent="1" vertex="1">
                    <mxGeometry x="80" y="360" width="80" height="60" as="geometry"/>
                </mxCell>
                <mxCell id="W0mSgelWktw8DuVjzA9t-13" value="" style="endArrow=none;html=1;rounded=0;edgeStyle=orthogonalEdgeStyle;endFill=0;" parent="1" source="W0mSgelWktw8DuVjzA9t-12" edge="1">
                    <mxGeometry width="50" height="50" relative="1" as="geometry">
                        <mxPoint x="105" y="520" as="sourcePoint"/>
                        <mxPoint x="195" y="460" as="targetPoint"/>
                        <Array as="points">
                            <mxPoint x="90" y="460"/>
                        </Array>
                    </mxGeometry>
                </mxCell>
                <mxCell id="W0mSgelWktw8DuVjzA9t-14" value="name" style="ellipse;whiteSpace=wrap;html=1;" parent="1" vertex="1">
                    <mxGeometry x="90" y="490" width="80" height="60" as="geometry"/>
                </mxCell>
                <mxCell id="W0mSgelWktw8DuVjzA9t-15" value="" style="endArrow=none;html=1;rounded=0;edgeStyle=orthogonalEdgeStyle;endFill=0;entryX=0.25;entryY=1;entryDx=0;entryDy=0;" parent="1" source="W0mSgelWktw8DuVjzA9t-14" target="W0mSgelWktw8DuVjzA9t-1" edge="1">
                    <mxGeometry width="50" height="50" relative="1" as="geometry">
                        <mxPoint x="115" y="530" as="sourcePoint"/>
                        <mxPoint x="205" y="470" as="targetPoint"/>
                        <Array as="points">
                            <mxPoint x="225" y="510"/>
                            <mxPoint x="225" y="510"/>
                        </Array>
                    </mxGeometry>
                </mxCell>
                <mxCell id="W0mSgelWktw8DuVjzA9t-16" value="surname" style="ellipse;whiteSpace=wrap;html=1;" parent="1" vertex="1">
                    <mxGeometry x="110" y="580" width="80" height="60" as="geometry"/>
                </mxCell>
                <mxCell id="W0mSgelWktw8DuVjzA9t-18" value="" style="endArrow=none;html=1;rounded=0;edgeStyle=orthogonalEdgeStyle;endFill=0;entryX=0.5;entryY=1;entryDx=0;entryDy=0;exitX=0.988;exitY=0.35;exitDx=0;exitDy=0;exitPerimeter=0;" parent="1" source="W0mSgelWktw8DuVjzA9t-16" target="W0mSgelWktw8DuVjzA9t-1" edge="1">
                    <mxGeometry width="50" height="50" relative="1" as="geometry">
                        <mxPoint x="240" y="613" as="sourcePoint"/>
                        <mxPoint x="294.5" y="480" as="targetPoint"/>
                        <Array as="points">
                            <mxPoint x="189" y="613"/>
                            <mxPoint x="240" y="613"/>
                            <mxPoint x="240" y="480"/>
                        </Array>
                    </mxGeometry>
                </mxCell>
                <mxCell id="W0mSgelWktw8DuVjzA9t-19" value="relative" style="rhombus;whiteSpace=wrap;html=1;" parent="1" vertex="1">
                    <mxGeometry x="250" y="550" width="120" height="80" as="geometry"/>
                </mxCell>
                <mxCell id="W0mSgelWktw8DuVjzA9t-20" style="edgeStyle=orthogonalEdgeStyle;rounded=0;orthogonalLoop=1;jettySize=auto;html=1;exitX=0.5;exitY=1;exitDx=0;exitDy=0;" parent="1" source="W0mSgelWktw8DuVjzA9t-19" target="W0mSgelWktw8DuVjzA9t-19" edge="1">
                    <mxGeometry relative="1" as="geometry"/>
                </mxCell>
                <mxCell id="W0mSgelWktw8DuVjzA9t-22" value="" style="endArrow=none;html=1;rounded=0;edgeStyle=orthogonalEdgeStyle;entryX=0.75;entryY=1;entryDx=0;entryDy=0;endFill=0;exitX=0;exitY=0;exitDx=0;exitDy=0;" parent="1" source="W0mSgelWktw8DuVjzA9t-19" target="W0mSgelWktw8DuVjzA9t-1" edge="1">
                    <mxGeometry width="50" height="50" relative="1" as="geometry">
                        <mxPoint x="280" y="560" as="sourcePoint"/>
                        <mxPoint x="325" y="460" as="targetPoint"/>
                        <Array as="points">
                            <mxPoint x="280" y="480"/>
                        </Array>
                    </mxGeometry>
                </mxCell>
                <mxCell id="W0mSgelWktw8DuVjzA9t-28" value="" style="edgeStyle=orthogonalEdgeStyle;rounded=0;orthogonalLoop=1;jettySize=auto;html=1;startArrow=none;startFill=0;endArrow=none;endFill=0;exitX=0;exitY=0;exitDx=0;exitDy=0;entryX=1.008;entryY=0.4;entryDx=0;entryDy=0;entryPerimeter=0;" parent="1" source="W0mSgelWktw8DuVjzA9t-42" target="W0mSgelWktw8DuVjzA9t-10" edge="1">
                    <mxGeometry relative="1" as="geometry">
                        <mxPoint x="560" y="280" as="targetPoint"/>
                        <Array as="points">
                            <mxPoint x="490" y="270"/>
                            <mxPoint x="490" y="244"/>
                        </Array>
                    </mxGeometry>
                </mxCell>
                <mxCell id="W0mSgelWktw8DuVjzA9t-23" value="contagion" style="rounded=0;whiteSpace=wrap;html=1;" parent="1" vertex="1">
                    <mxGeometry x="640" y="250" width="120" height="60" as="geometry"/>
                </mxCell>
                <mxCell id="W0mSgelWktw8DuVjzA9t-26" value="" style="edgeStyle=orthogonalEdgeStyle;rounded=0;orthogonalLoop=1;jettySize=auto;html=1;startArrow=none;startFill=0;endArrow=none;endFill=0;" parent="1" source="W0mSgelWktw8DuVjzA9t-24" target="W0mSgelWktw8DuVjzA9t-23" edge="1">
                    <mxGeometry relative="1" as="geometry"/>
                </mxCell>
                <mxCell id="W0mSgelWktw8DuVjzA9t-24" value="date" style="ellipse;whiteSpace=wrap;html=1;" parent="1" vertex="1">
                    <mxGeometry x="640" y="140" width="80" height="60" as="geometry"/>
                </mxCell>
                <mxCell id="W0mSgelWktw8DuVjzA9t-29" value="vaccine" style="rounded=0;whiteSpace=wrap;html=1;" parent="1" vertex="1">
                    <mxGeometry x="650" y="370" width="120" height="60" as="geometry"/>
                </mxCell>
                <mxCell id="W0mSgelWktw8DuVjzA9t-30" value="" style="edgeStyle=orthogonalEdgeStyle;rounded=0;orthogonalLoop=1;jettySize=auto;html=1;startArrow=none;startFill=0;endArrow=none;endFill=0;" parent="1" source="W0mSgelWktw8DuVjzA9t-31" target="W0mSgelWktw8DuVjzA9t-29" edge="1">
                    <mxGeometry relative="1" as="geometry">
                        <Array as="points">
                            <mxPoint x="790" y="410"/>
                            <mxPoint x="790" y="410"/>
                        </Array>
                    </mxGeometry>
                </mxCell>
                <mxCell id="W0mSgelWktw8DuVjzA9t-31" value="date" style="ellipse;whiteSpace=wrap;html=1;" parent="1" vertex="1">
                    <mxGeometry x="860" y="380" width="80" height="60" as="geometry"/>
                </mxCell>
                <mxCell id="W0mSgelWktw8DuVjzA9t-34" value="" style="edgeStyle=orthogonalEdgeStyle;rounded=0;orthogonalLoop=1;jettySize=auto;html=1;startArrow=none;startFill=0;endArrow=none;endFill=0;entryX=1;entryY=1;entryDx=0;entryDy=0;exitX=0.75;exitY=0;exitDx=0;exitDy=0;" parent="1" source="W0mSgelWktw8DuVjzA9t-1" target="W0mSgelWktw8DuVjzA9t-2" edge="1">
                    <mxGeometry relative="1" as="geometry">
                        <mxPoint x="265" y="430" as="sourcePoint"/>
                        <mxPoint x="230" y="360" as="targetPoint"/>
                        <Array as="points">
                            <mxPoint x="285" y="360"/>
                            <mxPoint x="250" y="360"/>
                        </Array>
                    </mxGeometry>
                </mxCell>
                <mxCell id="W0mSgelWktw8DuVjzA9t-35" value="" style="endArrow=none;html=1;rounded=0;edgeStyle=orthogonalEdgeStyle;entryX=0.908;entryY=1.017;entryDx=0;entryDy=0;endFill=0;entryPerimeter=0;" parent="1" source="W0mSgelWktw8DuVjzA9t-19" target="W0mSgelWktw8DuVjzA9t-1" edge="1">
                    <mxGeometry width="50" height="50" relative="1" as="geometry">
                        <mxPoint x="420" y="460" as="sourcePoint"/>
                        <mxPoint x="325" y="435" as="targetPoint"/>
                        <Array as="points">
                            <mxPoint x="304" y="520"/>
                            <mxPoint x="304" y="520"/>
                        </Array>
                    </mxGeometry>
                </mxCell>
                <mxCell id="W0mSgelWktw8DuVjzA9t-36" value="test" style="rounded=0;whiteSpace=wrap;html=1;" parent="1" vertex="1">
                    <mxGeometry x="650" y="525" width="120" height="60" as="geometry"/>
                </mxCell>
                <mxCell id="W0mSgelWktw8DuVjzA9t-37" value="" style="edgeStyle=orthogonalEdgeStyle;rounded=0;orthogonalLoop=1;jettySize=auto;html=1;startArrow=none;startFill=0;endArrow=none;endFill=0;" parent="1" source="W0mSgelWktw8DuVjzA9t-38" target="W0mSgelWktw8DuVjzA9t-36" edge="1">
                    <mxGeometry relative="1" as="geometry">
                        <Array as="points">
                            <mxPoint x="790" y="565"/>
                            <mxPoint x="790" y="565"/>
                        </Array>
                    </mxGeometry>
                </mxCell>
                <mxCell id="W0mSgelWktw8DuVjzA9t-38" value="date" style="ellipse;whiteSpace=wrap;html=1;" parent="1" vertex="1">
                    <mxGeometry x="860" y="535" width="80" height="60" as="geometry"/>
                </mxCell>
                <mxCell id="W0mSgelWktw8DuVjzA9t-39" value="type" style="ellipse;whiteSpace=wrap;html=1;" parent="1" vertex="1">
                    <mxGeometry x="790" y="630" width="80" height="60" as="geometry"/>
                </mxCell>
                <mxCell id="W0mSgelWktw8DuVjzA9t-40" value="" style="edgeStyle=orthogonalEdgeStyle;rounded=0;orthogonalLoop=1;jettySize=auto;html=1;startArrow=none;startFill=0;endArrow=none;endFill=0;entryX=0.75;entryY=1;entryDx=0;entryDy=0;exitX=0.5;exitY=0;exitDx=0;exitDy=0;" parent="1" source="W0mSgelWktw8DuVjzA9t-39" target="W0mSgelWktw8DuVjzA9t-36" edge="1">
                    <mxGeometry relative="1" as="geometry">
                        <mxPoint x="870" y="575" as="sourcePoint"/>
                        <mxPoint x="780" y="565" as="targetPoint"/>
                    </mxGeometry>
                </mxCell>
                <mxCell id="W0mSgelWktw8DuVjzA9t-43" value="" style="edgeStyle=orthogonalEdgeStyle;rounded=0;orthogonalLoop=1;jettySize=auto;html=1;startArrow=none;startFill=0;endArrow=none;endFill=0;" parent="1" source="W0mSgelWktw8DuVjzA9t-42" target="W0mSgelWktw8DuVjzA9t-23" edge="1">
                    <mxGeometry relative="1" as="geometry"/>
                </mxCell>
                <mxCell id="W0mSgelWktw8DuVjzA9t-42" value="occurred" style="rhombus;whiteSpace=wrap;html=1;" parent="1" vertex="1">
                    <mxGeometry x="480" y="250" width="120" height="80" as="geometry"/>
                </mxCell>
                <mxCell id="W0mSgelWktw8DuVjzA9t-46" value="" style="edgeStyle=orthogonalEdgeStyle;rounded=0;orthogonalLoop=1;jettySize=auto;html=1;startArrow=none;startFill=0;endArrow=none;endFill=0;" parent="1" source="W0mSgelWktw8DuVjzA9t-44" target="W0mSgelWktw8DuVjzA9t-29" edge="1">
                    <mxGeometry relative="1" as="geometry"/>
                </mxCell>
                <mxCell id="W0mSgelWktw8DuVjzA9t-44" value="gets" style="rhombus;whiteSpace=wrap;html=1;" parent="1" vertex="1">
                    <mxGeometry x="460" y="385" width="120" height="80" as="geometry"/>
                </mxCell>
                <mxCell id="W0mSgelWktw8DuVjzA9t-45" value="" style="edgeStyle=orthogonalEdgeStyle;rounded=0;orthogonalLoop=1;jettySize=auto;html=1;startArrow=none;startFill=0;endArrow=none;endFill=0;entryX=1;entryY=0.5;entryDx=0;entryDy=0;" parent="1" source="W0mSgelWktw8DuVjzA9t-44" target="W0mSgelWktw8DuVjzA9t-1" edge="1">
                    <mxGeometry relative="1" as="geometry">
                        <mxPoint x="420" y="290" as="sourcePoint"/>
                        <mxPoint x="290" y="320" as="targetPoint"/>
                        <Array as="points">
                            <mxPoint x="315" y="440"/>
                        </Array>
                    </mxGeometry>
                </mxCell>
                <mxCell id="W0mSgelWktw8DuVjzA9t-49" value="" style="edgeStyle=orthogonalEdgeStyle;rounded=0;orthogonalLoop=1;jettySize=auto;html=1;startArrow=none;startFill=0;endArrow=none;endFill=0;" parent="1" source="W0mSgelWktw8DuVjzA9t-47" target="W0mSgelWktw8DuVjzA9t-36" edge="1">
                    <mxGeometry relative="1" as="geometry"/>
                </mxCell>
                <mxCell id="W0mSgelWktw8DuVjzA9t-47" value="gets" style="rhombus;whiteSpace=wrap;html=1;" parent="1" vertex="1">
                    <mxGeometry x="460" y="490" width="120" height="80" as="geometry"/>
                </mxCell>
                <mxCell id="W0mSgelWktw8DuVjzA9t-48" value="" style="edgeStyle=orthogonalEdgeStyle;rounded=0;orthogonalLoop=1;jettySize=auto;html=1;startArrow=none;startFill=0;endArrow=none;endFill=0;entryX=1;entryY=0.75;entryDx=0;entryDy=0;exitX=0.317;exitY=0.188;exitDx=0;exitDy=0;exitPerimeter=0;" parent="1" source="W0mSgelWktw8DuVjzA9t-47" target="W0mSgelWktw8DuVjzA9t-1" edge="1">
                    <mxGeometry relative="1" as="geometry">
                        <mxPoint x="493.75" y="490" as="sourcePoint"/>
                        <mxPoint x="326.25" y="500" as="targetPoint"/>
                        <Array as="points">
                            <mxPoint x="498" y="500"/>
                            <mxPoint x="315" y="500"/>
                        </Array>
                    </mxGeometry>
                </mxCell>
                <mxCell id="W0mSgelWktw8DuVjzA9t-51" value="" style="edgeStyle=orthogonalEdgeStyle;rounded=0;orthogonalLoop=1;jettySize=auto;html=1;startArrow=none;startFill=0;endArrow=none;endFill=0;" parent="1" source="W0mSgelWktw8DuVjzA9t-50" target="W0mSgelWktw8DuVjzA9t-36" edge="1">
                    <mxGeometry relative="1" as="geometry"/>
                </mxCell>
                <mxCell id="W0mSgelWktw8DuVjzA9t-50" value="result" style="ellipse;whiteSpace=wrap;html=1;" parent="1" vertex="1">
                    <mxGeometry x="640" y="640" width="80" height="60" as="geometry"/>
                </mxCell>
                <mxCell id="2" value="place_name&lt;br&gt;" style="ellipse;whiteSpace=wrap;html=1;rounded=0;" vertex="1" parent="1">
                    <mxGeometry x="220" y="50" width="120" height="60" as="geometry"/>
                </mxCell>
                <mxCell id="5" value="place_category" style="ellipse;whiteSpace=wrap;html=1;rounded=0;" vertex="1" parent="1">
                    <mxGeometry x="410" y="50" width="120" height="60" as="geometry"/>
                </mxCell>
            </root>
        </mxGraphModel>
    </diagram>
</mxfile>